<svg width="75" height="72" viewBox="0 0 75 72" fill="none" xmlns="http://www.w3.org/2000/svg">
<path d="M6.20203 8.95508H13.9546L14.8406 14.9251M52.7173 50.7454C49.292 50.7454 46.5152 53.4182 46.5152 56.7154C46.5152 60.0126 49.292 62.6855 52.7173 62.6855C56.1426 62.6855 58.9193 60.0126 58.9193 56.7154C58.9193 53.4182 56.1426 50.7454 52.7173 50.7454ZM52.7173 50.7454H27.9091M27.9091 50.7454C24.4839 50.7454 21.7071 53.4182 21.7071 56.7154C21.7071 60.0126 24.4839 62.6855 27.9091 62.6855C31.3344 62.6855 34.1112 60.0126 34.1112 56.7154C34.1112 53.4182 31.3344 50.7454 27.9091 50.7454ZM27.9091 50.7454H20.1566L18.8276 41.7903M18.8276 41.7903H55.8183L65.1213 14.9251H14.8406M18.8276 41.7903L14.8406 14.9251" stroke="white" stroke-width="2" stroke-linecap="round" stroke-linejoin="round"/>
</svg>
