<svg width="18" height="18" viewBox="0 0 18 18" fill="none" xmlns="http://www.w3.org/2000/svg">
<g clip-path="url(#clip0_544_745)">
<path d="M6.75 11.4189C7.90312 12.5439 9.50625 13.2471 11.25 13.2471C14.8219 13.2471 17.7188 10.3502 17.7188 6.77832C17.7188 3.20645 14.8219 0.30957 11.25 0.30957C7.67812 0.30957 4.78125 3.20645 4.78125 6.77832C4.78125 8.01582 5.11875 9.16895 5.7375 10.1533L5.70937 10.1814L0.393749 15.4971C0.168749 15.7221 0.421873 16.3127 0.928123 16.8189C1.43437 17.3252 2.05312 17.5783 2.25 17.3533L7.59375 12.0096" stroke="white" stroke-width="2"/>
</g>
<defs>
<clipPath id="clip0_544_745">
<rect width="18" height="18" fill="white" transform="matrix(-1 0 0 1 18 0)"/>
</clipPath>
</defs>
</svg>
